<?xml version="1.0" encoding="UTF-8"?>
<svg id="Layer_1" data-name="Layer 1" xmlns="http://www.w3.org/2000/svg" viewBox="0 0 257 152.68">
  <defs>
    <style>
      .cls-1 {
        fill: #d3a975;
      }

      .cls-1, .cls-2, .cls-3, .cls-4, .cls-5 {
        stroke: #231f20;
        stroke-miterlimit: 10;
      }

      .cls-6 {
        fill: #c9ab7f;
      }

      .cls-6, .cls-7, .cls-8 {
        stroke-width: 0px;
      }

      .cls-7 {
        fill: #debc8b;
      }

      .cls-2 {
        stroke-width: .5px;
      }

      .cls-2, .cls-4 {
        fill: #844f23;
      }

      .cls-3, .cls-5 {
        fill: #613811;
      }

      .cls-8 {
        fill: #c8a170;
      }

      .cls-9 {
        fill: #231f20;
        font-family: MyriadPro-Regular, 'Myriad Pro';
        font-size: .42px;
      }

      .cls-5 {
        stroke-width: .4px;
      }
    </style>
  </defs>
  <path class="cls-3" d="M245.65,44.8l-33.8,18.94v36.64c7.3-1.87,44.31-11.65,44.65-12.14.29-.42-7.09-23.92-9.85-41.82"/>
  <path class="cls-4" d="M185.75,6.07c11.47-5.68,26.94-7.09,40.07-3.88,25.48,6.24,30.61,24.65,24.63,37.71-3.89,8.5-10.04,13-10.04,13-.6.53-1.2,1.05-1.81,1.56-4.87,4.09-10.33,7.38-16.11,9.85-13.37,5.69-16.16,5.76-26.74,4.02"/>
  <path class="cls-4" d="M126.31,131.62c14.59-3.07,54.33-10.73,82.58-28.39,3.27-2.05,5.75-5.62,5.72-10.23-.04-8.28-.78-16.56-2.22-24.69-.4-2.24-.88-4.55-2.12-6.34-4.33-6.22-7.73-3.91-12.71-3.25,1.51-.53,2.64-1.9,4.15-2.43,3.75-1.33,5.68-5,6.59-9.77,1.44-7.52-.54-9.88-1.8-12.38-3.62-7.17-14.17-5.78-18.92-3.61,2.11-.73,24.85-14.74,20.1-21.43-8.65-12.18-35.91-7.6-44.35-.72"/>
  <path class="cls-4" d="M108.48,19.42c11.07-3.71,42.83-10.74,42.83-10.74-2.17.37,10-1.21,12.03-.28,4.37,2.02,7.24,3.54,5.86,8.49-2.26,8.08-12.34,21.22-13.59,26.4,3.27.11,15.02-11.14,17.73-9.54,3.55,2.1,4.06,10.66,3.78,18.16-.83,21.94,1.26,71.46.45,66.07"/>
  <path class="cls-4" d="M118.56,20.22c16.91,4.28,15.74,8.05,18.53,13.12.36.65-.35-.66,0,0,3.66,6.83-.34,15.24-3.3,22.65-.04.1.04.23.12.16,2.36-1.98,12.18-13.46,19.08,4.32,3.5,9,2.41,19.04-.31,30.11-3.07,12.53-18.92,35.3-26.91,42.78-3.77,3.53-17.28,8.33-17.28,8.33-.05.02.01.06,0,0l-6.48-52.23s-11.18,1.99-3.85-3.44c5.64-4.17-.08-7.21,0-6.9l-4.33-6.21c-.09-.34-52.5-27.49-52.5-27.49-2.2,1.45,14.25-9.06,16.37-10.06,25.99-12.19,33.27-16.84,60.85-15.13"/>
  <path class="cls-3" d="M166.79,120.22c-4.88-15.6-5.84-27.26-4.84-37.75-.18,8.16-4.47,33.01-5.08,41.94.26-4.47-.15.45,0,0,1.69-.61,9.29-3.51,9.92-4.19Z"/>
  <path class="cls-3" d="M134.95,71.25c-.74,2.12,3.43-12.1,6.61-7.76,1.08,0,3.88,9.94-5.44,29.98,0,0,2.07-15.41-1.17-22.22Z"/>
  <path class="cls-3" d="M141.42,22.91s9.79-5.13,17.11-4.17c4.08.54-3.22,10.36-8.03,13.95-1.68,1.25-3.82.73-5.03-1.19s-4.04-8.59-4.04-8.59Z"/>
  <path class="cls-3" d="M215.57,38.69s8.02-5.58,7.27-11.99c0,0-2.25-10.93-12.01-6.02-1.17.59,2.67,12.95,4.75,18Z"/>
  <path class="cls-2" d="M231.92,80.35c.42,2.7-.6,15.3-7.77,14.64-8-.73-7.19-13.61-7.19-14.22s-.86-14.16,7.19-14.2c7.07-.03,7.68,13.16,7.77,13.78Z"/>
  <path class="cls-5" d="M226.45,78.47c0,2.65.28,7.56-1.92,7.54-1.64,0-1.69-2.59-1.95-7.55-.14-2.65-.45-5.88,1.82-5.88,2.07,0,2.06,3.24,2.06,5.89Z"/>
  <path class="cls-2" d="M239.59,58.02c-.26.17-2.03.72-.85.16,4.11-.73,9.08,2.08,8.95,4.63-.11,2.13-1.92,4.47-3.12,3.19-1.19-1.27-1.16-1.23-2.41-1.89-.77-.41-1.43-.81-3.07-.12-.78.32-2.14,1.43-2.01,2.64.04.4,1.95,1.14,1.69,1.05-1.14-.38,3.01,1.1,6.41,2.98,2.15,1.19,3,3.16,3.3,6.26.14,1.44-.13,3.38-.87,5.04-.02.04-.03.08-.05.12-2.28,5.14-6.05,8.22-9.24,7.18-1.07-.35-2.13-1.12-3.07-2.55-1.36-2.08-1.65-5.39-1.86-8.36-.15-2.07,1.14-4.28,3.01-3.84,1.25.3,1.34,5.85,2.3,6.83,1.12,1.13.87,1.2,2.39.66,1.52-.54,2.92-2.36,3.05-4.33.15-2.25-1.3-3.93-2.9-4.57-1.6-.64-3.41-.46-5.05-.97-1.42-.44-1.91-.36-2.79-3.04-.52-1.57-.17-4.24.84-6.28,2.37-4.83,5.34-4.77,5.34-4.77"/>
  <path class="cls-3" d="M104.59,31.56s14.85-3.43,17.85.83c0-.15,1.39-.09.18,9.65-.07.56-.76.81-1.17.41l-3.68-3.69c-1.9-1.91-4.16-3.43-6.65-4.47l-6.53-2.73Z"/>
  <path class="cls-1" d="M104.6,95.18c-.27-.35,10.65-6.49,11.57-14.36-.45-6.66-1.45-20.41-12.33-27.24,0,0-17.53-16.13-46.3-13.5,0,0-32.24.58-51.81,29.14,0,0-14.47,23.25,4.75,31.38l7.03,45.52c2.22,3.31.05,7.75,23.04,5.42l57.76-5.88c6.97-.99,13.89,1.54,11.19-15.81,0,0-.24-31.44-4.91-34.66s0,0,0,0Z"/>
  <ellipse class="cls-8" cx="17.49" cy="77.11" rx="4.89" ry="2.9"/>
  <ellipse class="cls-8" cx="80.57" cy="72.22" rx="4.89" ry="2.9"/>
  <ellipse class="cls-8" cx="70.38" cy="109.26" rx="4.89" ry="2.9"/>
  <ellipse class="cls-8" cx="53.7" cy="125.13" rx="4.89" ry="2.9"/>
  <ellipse class="cls-8" cx="40.96" cy="104.26" rx="4.89" ry="2.9"/>
  <ellipse class="cls-8" cx="64.55" cy="85.6" rx="4.89" ry="2.9"/>
  <ellipse class="cls-8" cx="25.89" cy="84.64" rx="4.89" ry="2.9"/>
  <ellipse class="cls-8" cx="64.55" cy="106.36" rx="4.89" ry="2.9"/>
  <ellipse class="cls-8" cx="85.05" cy="128.02" rx="4.89" ry="2.9"/>
  <ellipse class="cls-8" cx="59.66" cy="69.04" rx="4.89" ry="2.9"/>
  <ellipse class="cls-8" cx="43.92" cy="87.54" rx="4.89" ry="2.9"/>
  <ellipse class="cls-8" cx="48.81" cy="128.02" rx="4.89" ry="2.9"/>
  <ellipse class="cls-8" cx="75.27" cy="103.46" rx="4.89" ry="2.9"/>
  <ellipse class="cls-8" cx="85.46" cy="75.12" rx="4.89" ry="2.9"/>
  <ellipse class="cls-8" cx="64.55" cy="66.14" rx="4.89" ry="2.9"/>
  <ellipse class="cls-8" cx="36.13" cy="66.67" rx="4.89" ry="2.9"/>
  <ellipse class="cls-7" cx="64.55" cy="109.26" rx="5.54" ry="2.39"/>
  <ellipse class="cls-7" cx="45.85" cy="114.69" rx="5.54" ry="2.39"/>
  <ellipse class="cls-6" cx="58.58" cy="114.69" rx="5.54" ry="2.39"/>
  <ellipse class="cls-7" cx="54.78" cy="83.1" rx="5.54" ry="2.39"/>
  <ellipse class="cls-7" cx="48.81" cy="103.46" rx="5.54" ry="2.39"/>
  <ellipse class="cls-7" cx="48.81" cy="92.38" rx="5.54" ry="2.39"/>
  <ellipse class="cls-7" cx="74.83" cy="130.92" rx="5.54" ry="2.39"/>
  <ellipse class="cls-7" cx="79.94" cy="66.42" rx="5.11" ry="2.64"/>
  <ellipse class="cls-7" cx="63.88" cy="98.38" rx="5.54" ry="2.4"/>
  <ellipse class="cls-7" cx="46.56" cy="75.12" rx="5.54" ry="2.39"/>
  <ellipse class="cls-7" cx="41.02" cy="125.13" rx="5.54" ry="2.39"/>
  <ellipse class="cls-7" cx="71.41" cy="81.74" rx="5.54" ry="2.39"/>
  <ellipse class="cls-7" cx="33.35" cy="87.54" rx="6.14" ry="2.98"/>
  <text class="cls-9" transform="translate(64.13 87.07) scale(.33 1)"><tspan x="0" y="0">Korn</tspan></text>
</svg>